<?xml version="1.0" encoding="utf-8"?>
<!-- Generator: Adobe Illustrator 21.1.0, SVG Export Plug-In . SVG Version: 6.00 Build 0)  -->
<svg version="1.1" id="Слой_1" xmlns="http://www.w3.org/2000/svg" xmlns:xlink="http://www.w3.org/1999/xlink" x="0px" y="0px"
	 viewBox="0 0 200 200" style="enable-background:new 0 0 200 200;" xml:space="preserve">
<style type="text/css">
	.st0{clip-path:url(#SVGID_2_);fill:#673AB7;}
	.st1{clip-path:url(#SVGID_2_);fill:none;stroke:#FFFFFF;stroke-width:2;stroke-miterlimit:10;}
	.st2{clip-path:url(#SVGID_2_);}
</style>
<g>
	<defs>
		<rect id="SVGID_1_" width="200" height="200"/>
	</defs>
	<clipPath id="SVGID_2_">
		<use xlink:href="#SVGID_1_"  style="overflow:visible;"/>
	</clipPath>
	<path class="st0" d="M176.4,121.5c0,41.1-33.4,74.5-74.5,74.5s-74.5-33.4-74.5-74.5c0-41.1,33.4-74.5,74.5-74.5
		S176.4,80.4,176.4,121.5"/>
	<circle class="st1" cx="101.9" cy="121.5" r="74.5"/>
	<path class="st2" d="M97,72.3c0,0-28.4,18.7-29.8,20.6c-1.1,1.4-3.3,3.1-8.8,25c0,0-5.3,10.3-5.8,11.6c-0.5,1.3-6.7,10.3-6.4,12
		c0.3,1.6,1.1,2.8,3.6,5.9c0.4-0.2,3.3,6.3,3.7,6.9c0.6,0.9,5.5,5.5,8.3,7.5c0.4,1,1.3,3.6,2,4.5c5.3,4.5,16.2,7,18.5,7.2
		c3.7,0.4,26.1-3.8,29.3-2.4c3.3,1.4,8.9,5.9,8.9,5.9c11.4-17.7,25.3-31.6,41-42.7l-6.3-35.9L97,72.3z"/>
	<path class="st1" d="M97,72.3c0,0-28.4,18.7-29.8,20.6c-1.1,1.4-3.3,3.1-8.8,25c0,0-5.3,10.3-5.8,11.6c-0.5,1.3-6.7,10.3-6.4,12
		c0.3,1.6,1.1,2.8,3.6,5.9c0.4-0.2,3.3,6.3,3.7,6.9c0.6,0.9,5.5,5.5,8.3,7.5c0.4,1,1.3,3.6,2,4.5c5.3,4.5,16.2,7,18.5,7.2
		c3.7,0.4,26.1-3.8,29.3-2.4c3.3,1.4,8.9,5.9,8.9,5.9c11.4-17.7,25.3-31.6,41-42.7l-6.3-35.9L97,72.3z"/>
	<polygon class="st2" points="98,66.5 95.8,3.9 153.9,91.5 	"/>
	<polygon class="st1" points="98,66.5 95.8,3.9 153.9,91.5 	"/>
	<path class="st0" d="M76.1,107.8c0,0,5.7,5.8,16.7,5.7c0,0-18.5,7.9-20.2,11.2c0,0-0.1-1.5,4.9-6.4c0,0-1-3.1,0.4-7.5
		C78.3,109.8,76.1,107.8,76.1,107.8"/>
	<path class="st0" d="M52.9,142.4c-0.1-1.2,4.7,1.4,4.7,1.4s-2.9-1.4-3.4-0.4c-0.5,1.1,0.1,3,0,3.9c0,0-0.5-1.6-0.8-3.2
		C53.2,143.5,53,142.9,52.9,142.4"/>
	<path class="st0" d="M62.6,161.1c0.4-0.1,5.6,2.3,5.6,2.3c1.3,0.3,3.3,0.5,4.5,0.7c1.3,0.1,3.1,0,4.4-0.3c1.3-0.3,2.5-0.7,3.8-1
		c1.3-0.3,2.6-0.5,3.9-0.7c2.7-0.3,5.4-0.1,7.9,0.6c-2.6-0.2-5.3-0.2-7.8,0.2c-2.6,0.4-5.1,1-7.7,1.6c-0.7,0.1-1.3,0.3-2,0.4
		c-0.7,0.1-1.4,0.1-2.1,0.1c-1.4,0-2.7-0.2-4-0.5c-1.3-0.2-6.1-2.3-6.3-2.6L62.6,161.1z"/>
</g>
</svg>
